<?xml version="1.0" standalone="no"?>
<!DOCTYPE svg PUBLIC "-//W3C//DTD SVG 20010904//EN"
 "http://www.w3.org/TR/2001/REC-SVG-20010904/DTD/svg10.dtd">
<svg version="1.0" xmlns="http://www.w3.org/2000/svg"
 width="1024.000000pt" height="1024.000000pt" viewBox="0 0 1024.000000 1024.000000"
 preserveAspectRatio="xMidYMid meet">
<metadata>
Created by potrace 1.11, written by Peter Selinger 2001-2013
</metadata>
<g transform="translate(0.000000,1024.000000) scale(0.100000,-0.100000)"
fill="#000000" stroke="none">
<path d="M5660 7276 l0 -146 188 0 c211 -1 356 -11 422 -31 27 -8 61 -30 86
-54 46 -47 73 -112 133 -328 l38 -137 -1309 2 -1310 3 -48 130 c-26 72 -45
133 -41 136 3 3 89 23 191 43 440 89 505 119 453 208 l-19 33 -665 0 -664 0
-3 -141 -3 -141 38 -7 c21 -3 101 -6 179 -6 l141 0 50 -136 51 -135 -206 -445
c-183 -395 -209 -445 -227 -441 -11 3 -69 17 -130 32 -149 36 -388 45 -553 21
-347 -51 -647 -207 -890 -460 -391 -409 -504 -997 -293 -1521 77 -191 191
-356 352 -509 205 -195 441 -319 734 -387 131 -30 393 -37 542 -15 583 86
1069 502 1228 1052 14 48 28 90 31 93 3 3 162 8 353 11 l347 5 80 39 c102 51
206 154 562 557 255 290 512 573 701 774 300 317 525 545 531 538 8 -8 100
-282 100 -295 0 -4 -37 -26 -82 -48 -168 -84 -299 -181 -434 -323 -185 -193
-311 -433 -370 -707 -27 -121 -27 -429 0 -550 42 -192 115 -364 225 -530 74
-113 269 -308 386 -387 404 -273 893 -342 1355 -192 482 157 859 555 980 1034
124 489 -16 998 -375 1359 -228 231 -500 373 -830 433 -103 19 -408 23 -487 6
l-48 -10 -9 31 c-32 113 -308 986 -347 1096 -112 324 -208 468 -354 532 -95
41 -164 49 -477 55 l-303 6 0 -147z m889 -1073 c-31 -32 -420 -443 -864 -913
-444 -470 -829 -877 -855 -903 l-46 -48 -364 948 c-200 521 -365 954 -368 961
-3 9 256 12 1274 12 l1278 0 -55 -57z m-2450 -992 c193 -491 351 -897 351
-902 0 -5 -60 -9 -134 -9 l-133 0 -7 97 c-31 438 -282 859 -659 1102 -65 43
-66 44 -53 70 15 29 205 435 244 521 20 46 26 52 32 35 4 -11 166 -422 359
-914z m-1310 189 c88 -9 197 -32 208 -44 3 -2 -97 -224 -223 -493 -253 -543
-314 -684 -314 -728 0 -47 31 -96 75 -119 39 -21 53 -21 643 -21 331 0 602 -3
602 -7 0 -4 -13 -43 -29 -87 -54 -147 -150 -290 -276 -410 -480 -456 -1266
-414 -1689 89 -119 142 -186 270 -234 449 -22 83 -25 117 -26 256 0 133 4 175
22 248 128 511 569 860 1107 875 22 1 82 -3 134 -8z m4834 -35 c492 -86 871
-461 942 -935 65 -427 -121 -839 -491 -1086 -329 -219 -761 -256 -1119 -96
-651 293 -877 1050 -488 1635 59 88 186 218 273 279 86 60 197 121 203 111 3
-4 55 -163 116 -353 239 -745 251 -773 352 -786 34 -4 54 0 89 18 60 31 85 76
84 153 0 68 -20 136 -202 695 -115 353 -119 365 -98 372 40 12 254 8 339 -7z
m-4243 -195 c83 -61 193 -176 250 -260 112 -165 189 -388 190 -546 l0 -62
-322 -7 c-178 -3 -391 -5 -474 -3 l-152 3 215 463 c119 254 218 462 221 462 2
0 35 -23 72 -50z"/>
</g>
</svg>
